name C:/MyDriveSym/Projects/mobilecap/Data\Session20210827_0001\mocap\ForceDataProcessed\DJ1_forces.mot
datacolumns 28
datarows 8
range 2.03200000 2.03550000
endheader 
time	R_ground_force_vx	R_ground_force_vy	R_ground_force_vz	R_ground_force_px	R_ground_force_py	R_ground_force_pz	R_ground_torque_x	R_ground_torque_y	R_ground_torque_z	L_ground_force_vx	L_ground_force_vy	L_ground_force_vz	L_ground_force_px	L_ground_force_py	L_ground_force_pz	L_ground_torque_x	L_ground_torque_y	L_ground_torque_z	3_ground_force_vx	3_ground_force_vy	3_ground_force_vz	3_ground_force_px	3_ground_force_py	3_ground_force_pz	3_ground_torque_x	3_ground_torque_y	3_ground_torque_z	
          2.03200000	        -84.90960600	        539.51750800	        -52.40917300	         -0.10997800	          0.00600000	         -0.44774100	          0.00000000	         -2.74467700	          0.00000000	        -98.03176200	        554.39877000	         45.96568700	         -0.07246000	          0.00600000	         -0.75774600	          0.00000000	          2.37137500	          0.00000000	          0.00000000	          0.00000000	          0.00000000	          0.00000000	          0.00000000	          0.00000000	          0.00000000	          0.00000000	          0.00000000	
          2.03250000	        -84.40458200	        536.48971000	        -52.25700800	         -0.10986700	          0.00600000	         -0.44764200	          0.00000000	         -2.69765600	          0.00000000	        -97.91743100	        552.00088900	         45.89085700	         -0.07238800	          0.00600000	         -0.75783200	          0.00000000	          2.33158400	          0.00000000	          0.00000000	          0.00000000	          0.00000000	          0.00000000	          0.00000000	          0.00000000	          0.00000000	          0.00000000	          0.00000000	
          2.03300000	        -83.87268100	        533.38720600	        -52.09876700	         -0.10975300	          0.00600000	         -0.44754100	          0.00000000	         -2.65071300	          0.00000000	        -97.79203200	        549.55459200	         45.81053200	         -0.07231400	          0.00600000	         -0.75791900	          0.00000000	          2.29202300	          0.00000000	          0.00000000	          0.00000000	          0.00000000	          0.00000000	          0.00000000	          0.00000000	          0.00000000	          0.00000000	          0.00000000	
          2.03350000	        -83.31331600	        530.20830400	        -51.93373800	         -0.10963600	          0.00600000	         -0.44743800	          0.00000000	         -2.60390100	          0.00000000	        -97.65515700	        547.05968800	         45.72427200	         -0.07223800	          0.00600000	         -0.75800700	          0.00000000	          2.25276000	          0.00000000	          0.00000000	          0.00000000	          0.00000000	          0.00000000	          0.00000000	          0.00000000	          0.00000000	          0.00000000	          0.00000000	
          2.03400000	        -82.72585600	        526.95127000	        -51.76118500	         -0.10951600	          0.00600000	         -0.44733300	          0.00000000	         -2.55727500	          0.00000000	        -97.50638900	        544.51596600	         45.63162600	         -0.07216000	          0.00600000	         -0.75809700	          0.00000000	          2.21386500	          0.00000000	          0.00000000	          0.00000000	          0.00000000	          0.00000000	          0.00000000	          0.00000000	          0.00000000	          0.00000000	          0.00000000	
          2.03450000	        -82.10963000	        523.61434000	        -51.58035400	         -0.10939300	          0.00600000	         -0.44722700	          0.00000000	         -2.51089400	          0.00000000	        -97.34529800	        541.92321700	         45.53211900	         -0.07208000	          0.00600000	         -0.75818800	          0.00000000	          2.17540000	          0.00000000	          0.00000000	          0.00000000	          0.00000000	          0.00000000	          0.00000000	          0.00000000	          0.00000000	          0.00000000	          0.00000000	
          2.03500000	        -81.46392500	        520.19571700	        -51.39046800	         -0.10926600	          0.00600000	         -0.44711900	          0.00000000	         -2.46482100	          0.00000000	        -97.17144300	        539.28124300	         45.42525800	         -0.07199700	          0.00600000	         -0.75828000	          0.00000000	          2.13742700	          0.00000000	          0.00000000	          0.00000000	          0.00000000	          0.00000000	          0.00000000	          0.00000000	          0.00000000	          0.00000000	          0.00000000	
          2.03550000	        -80.78799700	        516.69354600	        -51.19073600	         -0.10913700	          0.00600000	         -0.44700900	          0.00000000	         -2.41912100	          0.00000000	        -96.98437100	        536.58983200	         45.31054700	         -0.07191300	          0.00600000	         -0.75837400	          0.00000000	          2.10000300	          0.00000000	          0.00000000	          0.00000000	          0.00000000	          0.00000000	          0.00000000	          0.00000000	          0.00000000	          0.00000000	          0.00000000	
